<mxfile host="65bd71144e">
    <diagram name="Page-1" id="PpiAXuhMJfuU2TDgkUnG">
        <mxGraphModel dx="2580" dy="2180" grid="0" gridSize="10" guides="1" tooltips="1" connect="1" arrows="1" fold="1" page="0" pageScale="1" pageWidth="1169" pageHeight="827" background="#1A1A1A" math="0" shadow="0">
            <root>
                <mxCell id="0"/>
                <mxCell id="1" parent="0"/>
                <mxCell id="10" value="" style="endArrow=none;dashed=1;html=1;dashPattern=1 3;strokeWidth=2;fontSize=24;" edge="1" parent="1">
                    <mxGeometry width="50" height="50" relative="1" as="geometry">
                        <mxPoint x="730" y="1555" as="sourcePoint"/>
                        <mxPoint x="719" y="65" as="targetPoint"/>
                    </mxGeometry>
                </mxCell>
                <mxCell id="118" value="" style="group" vertex="1" connectable="0" parent="1">
                    <mxGeometry x="86" y="41" width="603" height="1115" as="geometry"/>
                </mxCell>
                <mxCell id="zb47WEXeL8YfLTE8eIld-2" value="&lt;span style=&quot;font-weight: normal;&quot;&gt;&amp;lt;&amp;lt;abstract&amp;gt;&amp;gt;&lt;/span&gt;&lt;br&gt;DomainEvent" style="swimlane;fontStyle=1;align=center;verticalAlign=top;childLayout=stackLayout;horizontal=1;startSize=40;horizontalStack=0;resizeParent=1;resizeParentMax=0;resizeLast=0;collapsible=1;marginBottom=0;whiteSpace=wrap;html=1;strokeWidth=4;strokeColor=#76608A;" parent="118" vertex="1">
                    <mxGeometry x="357" y="517" width="171" height="159" as="geometry">
                        <mxRectangle x="448" y="565" width="95" height="26" as="alternateBounds"/>
                    </mxGeometry>
                </mxCell>
                <mxCell id="zb47WEXeL8YfLTE8eIld-3" value="&lt;p style=&quot;margin: 0px 0px 0px 4px;&quot;&gt;+ aggregateId: string&lt;br&gt;+ eventId: string&lt;/p&gt;&lt;p style=&quot;margin: 0px 0px 0px 4px;&quot;&gt;+ ocurredOn: Date&lt;/p&gt;&lt;p style=&quot;margin: 0px 0px 0px 4px;&quot;&gt;+ eventName: string&lt;/p&gt;" style="text;strokeColor=none;fillColor=none;align=left;verticalAlign=top;spacingLeft=4;spacingRight=4;overflow=hidden;rotatable=0;points=[[0,0.5],[1,0.5]];portConstraint=eastwest;whiteSpace=wrap;html=1;" parent="zb47WEXeL8YfLTE8eIld-2" vertex="1">
                    <mxGeometry y="40" width="171" height="70" as="geometry"/>
                </mxCell>
                <mxCell id="zb47WEXeL8YfLTE8eIld-4" value="" style="line;strokeWidth=1;fillColor=none;align=left;verticalAlign=middle;spacingTop=-1;spacingLeft=3;spacingRight=3;rotatable=0;labelPosition=right;points=[];portConstraint=eastwest;strokeColor=inherit;" parent="zb47WEXeL8YfLTE8eIld-2" vertex="1">
                    <mxGeometry y="110" width="171" height="8" as="geometry"/>
                </mxCell>
                <mxCell id="zb47WEXeL8YfLTE8eIld-5" value="+ from(Type): Type&lt;br&gt;+ to(Type, Type): Type" style="text;strokeColor=none;fillColor=none;align=left;verticalAlign=top;spacingLeft=4;spacingRight=4;overflow=hidden;rotatable=0;points=[[0,0.5],[1,0.5]];portConstraint=eastwest;whiteSpace=wrap;html=1;" parent="zb47WEXeL8YfLTE8eIld-2" vertex="1">
                    <mxGeometry y="118" width="171" height="41" as="geometry"/>
                </mxCell>
                <mxCell id="zb47WEXeL8YfLTE8eIld-16" value="&lt;p style=&quot;margin:0px;margin-top:4px;text-align:center;&quot;&gt;&lt;i&gt;&amp;lt;&amp;lt;Interface&amp;gt;&amp;gt;&lt;/i&gt;&lt;br&gt;&lt;b&gt;EventBus&lt;/b&gt;&lt;/p&gt;&lt;hr size=&quot;1&quot; style=&quot;border-style:solid;&quot;&gt;&lt;p style=&quot;margin:0px;margin-left:4px;&quot;&gt;+ publish(events: DomainEvent[])&lt;br&gt;+ addSubscribers(subscribers: DomainEventSubscribers)&lt;/p&gt;&lt;p style=&quot;margin:0px;margin-left:4px;&quot;&gt;&lt;br&gt;&lt;/p&gt;" style="verticalAlign=top;align=left;overflow=fill;html=1;whiteSpace=wrap;fillColor=none;strokeColor=#76608A;strokeWidth=4;" parent="118" vertex="1">
                    <mxGeometry y="372" width="329" height="88" as="geometry"/>
                </mxCell>
                <mxCell id="zb47WEXeL8YfLTE8eIld-17" value="Use" style="endArrow=open;endSize=12;dashed=1;html=1;rounded=0;fontSize=12;curved=1;exitX=0.5;exitY=0;exitDx=0;exitDy=0;entryX=0.5;entryY=1;entryDx=0;entryDy=0;" parent="118" source="zb47WEXeL8YfLTE8eIld-31" target="zb47WEXeL8YfLTE8eIld-16" edge="1">
                    <mxGeometry width="160" relative="1" as="geometry">
                        <mxPoint x="165.5" y="586" as="sourcePoint"/>
                        <mxPoint x="139" y="470" as="targetPoint"/>
                    </mxGeometry>
                </mxCell>
                <mxCell id="zb47WEXeL8YfLTE8eIld-23" value="" style="endArrow=block;dashed=1;endFill=0;endSize=12;html=1;rounded=0;fontSize=12;curved=1;entryX=0.5;entryY=0;entryDx=0;entryDy=0;" parent="118" source="66" target="zb47WEXeL8YfLTE8eIld-16" edge="1">
                    <mxGeometry width="160" relative="1" as="geometry">
                        <mxPoint x="164" y="323" as="sourcePoint"/>
                        <mxPoint x="129" y="441" as="targetPoint"/>
                    </mxGeometry>
                </mxCell>
                <mxCell id="zb47WEXeL8YfLTE8eIld-24" value="Extends" style="endArrow=block;endSize=16;endFill=0;html=1;rounded=0;fontSize=12;curved=1;exitX=0.25;exitY=0;exitDx=0;exitDy=0;entryX=0.507;entryY=0.99;entryDx=0;entryDy=0;entryPerimeter=0;" parent="118" source="47" target="zb47WEXeL8YfLTE8eIld-5" edge="1">
                    <mxGeometry width="160" relative="1" as="geometry">
                        <mxPoint x="442.5" y="752" as="sourcePoint"/>
                        <mxPoint x="-173.5" y="857" as="targetPoint"/>
                    </mxGeometry>
                </mxCell>
                <mxCell id="zb47WEXeL8YfLTE8eIld-31" value="&lt;font color=&quot;#000000&quot;&gt;&lt;b&gt;CourseCreator&lt;/b&gt;&lt;/font&gt;" style="swimlane;fontStyle=0;childLayout=stackLayout;horizontal=1;startSize=26;fillColor=#FFB366;horizontalStack=0;resizeParent=1;resizeParentMax=0;resizeLast=0;collapsible=1;marginBottom=0;whiteSpace=wrap;html=1;swimlaneFillColor=default;strokeColor=#b85450;" parent="118" vertex="1">
                    <mxGeometry x="51" y="545" width="227" height="104" as="geometry"/>
                </mxCell>
                <mxCell id="zb47WEXeL8YfLTE8eIld-32" value="- eventBus: EventBus" style="text;strokeColor=none;fillColor=none;align=left;verticalAlign=top;spacingLeft=4;spacingRight=4;overflow=hidden;rotatable=0;points=[[0,0.5],[1,0.5]];portConstraint=eastwest;whiteSpace=wrap;html=1;" parent="zb47WEXeL8YfLTE8eIld-31" vertex="1">
                    <mxGeometry y="26" width="227" height="26" as="geometry"/>
                </mxCell>
                <mxCell id="zb47WEXeL8YfLTE8eIld-33" value="+ constructor(eventBus: EventBus)" style="text;strokeColor=none;fillColor=none;align=left;verticalAlign=top;spacingLeft=4;spacingRight=4;overflow=hidden;rotatable=0;points=[[0,0.5],[1,0.5]];portConstraint=eastwest;whiteSpace=wrap;html=1;" parent="zb47WEXeL8YfLTE8eIld-31" vertex="1">
                    <mxGeometry y="52" width="227" height="26" as="geometry"/>
                </mxCell>
                <mxCell id="zb47WEXeL8YfLTE8eIld-34" value="+ execute()" style="text;strokeColor=none;fillColor=none;align=left;verticalAlign=top;spacingLeft=4;spacingRight=4;overflow=hidden;rotatable=0;points=[[0,0.5],[1,0.5]];portConstraint=eastwest;whiteSpace=wrap;html=1;" parent="zb47WEXeL8YfLTE8eIld-31" vertex="1">
                    <mxGeometry y="78" width="227" height="26" as="geometry"/>
                </mxCell>
                <mxCell id="8" value="&lt;h1&gt;&lt;font style=&quot;font-size: 24px;&quot;&gt;PUBLISHER ZONE&lt;/font&gt;&lt;/h1&gt;&lt;p&gt;It represents the example of a use case (&lt;i&gt;CourseCreator&lt;/i&gt;) instantiating an aggregate (Course), retrieving the domain events of that aggregate (in this case, &lt;i&gt;CourseCreated&lt;/i&gt;) and launching it through the event bus outwards.&lt;br&gt;&lt;/p&gt;" style="text;html=1;strokeColor=none;fillColor=none;spacing=5;spacingTop=-20;whiteSpace=wrap;overflow=hidden;rounded=0;fontSize=19;" vertex="1" parent="118">
                    <mxGeometry width="499" height="187" as="geometry"/>
                </mxCell>
                <mxCell id="21" value="&lt;p style=&quot;margin:0px;margin-top:4px;text-align:center;&quot;&gt;&lt;i&gt;&amp;lt;&amp;lt;type&amp;gt;&amp;gt;&lt;/i&gt;&lt;br&gt;&lt;b&gt;DomainEventClass&lt;/b&gt;&lt;/p&gt;&lt;hr size=&quot;1&quot; style=&quot;border-style:solid;&quot;&gt;&lt;p style=&quot;margin:0px;margin-left:4px;&quot;&gt;+ EVENT_NAME: string&lt;/p&gt;&lt;p style=&quot;margin:0px;margin-left:4px;&quot;&gt;+ fromPrimitives(params): DomainEvent&lt;/p&gt;" style="verticalAlign=top;align=left;overflow=fill;html=1;whiteSpace=wrap;strokeWidth=4;strokeColor=#76608A;" vertex="1" parent="118">
                    <mxGeometry x="357" y="411" width="231" height="88" as="geometry"/>
                </mxCell>
                <mxCell id="47" value="&lt;b&gt;CourseCreatedDomainEvent&lt;/b&gt;" style="swimlane;fontStyle=1;align=center;verticalAlign=top;childLayout=stackLayout;horizontal=1;startSize=21;horizontalStack=0;resizeParent=1;resizeParentMax=0;resizeLast=0;collapsible=1;marginBottom=0;whiteSpace=wrap;html=1;fillColor=#76608a;fontColor=#ffffff;strokeColor=#432D57;" vertex="1" parent="118">
                    <mxGeometry x="396" y="815" width="204" height="172" as="geometry">
                        <mxRectangle x="-103" y="373" width="95" height="26" as="alternateBounds"/>
                    </mxGeometry>
                </mxCell>
                <mxCell id="48" value="&lt;p style=&quot;margin: 0px 0px 0px 4px;&quot;&gt;+ static EVENT_NAME: string&lt;br&gt;+ aggregateId: string&lt;br&gt;+ eventId: string&lt;/p&gt;&lt;p style=&quot;margin: 0px 0px 0px 4px;&quot;&gt;+ ocurredOn: Date&lt;/p&gt;&lt;p style=&quot;margin: 0px 0px 0px 4px;&quot;&gt;+ eventName: string&lt;/p&gt;" style="text;strokeColor=none;fillColor=none;align=left;verticalAlign=top;spacingLeft=4;spacingRight=4;overflow=hidden;rotatable=0;points=[[0,0.5],[1,0.5]];portConstraint=eastwest;whiteSpace=wrap;html=1;" vertex="1" parent="47">
                    <mxGeometry y="21" width="204" height="98" as="geometry"/>
                </mxCell>
                <mxCell id="49" value="" style="line;strokeWidth=1;fillColor=none;align=left;verticalAlign=middle;spacingTop=-1;spacingLeft=3;spacingRight=3;rotatable=0;labelPosition=right;points=[];portConstraint=eastwest;strokeColor=inherit;" vertex="1" parent="47">
                    <mxGeometry y="119" width="204" height="8" as="geometry"/>
                </mxCell>
                <mxCell id="50" value="+ from(Type): Type&lt;br&gt;+ to(Type, Type): Type" style="text;strokeColor=none;fillColor=none;align=left;verticalAlign=top;spacingLeft=4;spacingRight=4;overflow=hidden;rotatable=0;points=[[0,0.5],[1,0.5]];portConstraint=eastwest;whiteSpace=wrap;html=1;" vertex="1" parent="47">
                    <mxGeometry y="127" width="204" height="45" as="geometry"/>
                </mxCell>
                <mxCell id="55" value="Instantiate" style="endArrow=none;endSize=12;dashed=1;html=1;rounded=0;fontSize=12;curved=1;exitX=0.487;exitY=0.949;exitDx=0;exitDy=0;entryX=0.5;entryY=0;entryDx=0;entryDy=0;exitPerimeter=0;" edge="1" parent="118" source="zb47WEXeL8YfLTE8eIld-34" target="51">
                    <mxGeometry width="160" relative="1" as="geometry">
                        <mxPoint x="161.54899999999998" y="647.674" as="sourcePoint"/>
                        <mxPoint x="163.5" y="802" as="targetPoint"/>
                    </mxGeometry>
                </mxCell>
                <mxCell id="51" value="&lt;b&gt;Course&lt;/b&gt;" style="swimlane;fontStyle=1;align=center;verticalAlign=top;childLayout=stackLayout;horizontal=1;startSize=21;horizontalStack=0;resizeParent=1;resizeParentMax=0;resizeLast=0;collapsible=1;marginBottom=0;whiteSpace=wrap;html=1;fillColor=#76608A;strokeColor=#432D57;fontColor=#ffffff;" vertex="1" parent="118">
                    <mxGeometry x="62.5" y="786" width="204" height="125" as="geometry">
                        <mxRectangle x="-103" y="373" width="95" height="26" as="alternateBounds"/>
                    </mxGeometry>
                </mxCell>
                <mxCell id="52" value="&lt;p style=&quot;margin: 0px 0px 0px 4px;&quot;&gt;+ id: CourseId&lt;br&gt;+ irrelevant properties&lt;/p&gt;" style="text;strokeColor=none;fillColor=none;align=left;verticalAlign=top;spacingLeft=4;spacingRight=4;overflow=hidden;rotatable=0;points=[[0,0.5],[1,0.5]];portConstraint=eastwest;whiteSpace=wrap;html=1;" vertex="1" parent="51">
                    <mxGeometry y="21" width="204" height="51" as="geometry"/>
                </mxCell>
                <mxCell id="53" value="" style="line;strokeWidth=1;fillColor=none;align=left;verticalAlign=middle;spacingTop=-1;spacingLeft=3;spacingRight=3;rotatable=0;labelPosition=right;points=[];portConstraint=eastwest;strokeColor=inherit;" vertex="1" parent="51">
                    <mxGeometry y="72" width="204" height="8" as="geometry"/>
                </mxCell>
                <mxCell id="54" value="+ static create(...): Course" style="text;strokeColor=none;fillColor=none;align=left;verticalAlign=top;spacingLeft=4;spacingRight=4;overflow=hidden;rotatable=0;points=[[0,0.5],[1,0.5]];portConstraint=eastwest;whiteSpace=wrap;html=1;" vertex="1" parent="51">
                    <mxGeometry y="80" width="204" height="45" as="geometry"/>
                </mxCell>
                <mxCell id="zb47WEXeL8YfLTE8eIld-44" value="record" style="html=1;verticalAlign=bottom;startArrow=circle;startFill=1;endArrow=open;startSize=6;endSize=8;curved=0;rounded=0;fontSize=12;exitX=1;exitY=0.5;exitDx=0;exitDy=0;" parent="118" source="54" target="48" edge="1">
                    <mxGeometry width="80" relative="1" as="geometry">
                        <mxPoint x="237.5" y="827" as="sourcePoint"/>
                        <mxPoint x="387.5" y="767" as="targetPoint"/>
                    </mxGeometry>
                </mxCell>
                <mxCell id="61" value="&lt;p style=&quot;margin:0px;margin-top:4px;text-align:center;&quot;&gt;&lt;i&gt;&amp;lt;&amp;lt;Interface&amp;gt;&amp;gt;&lt;/i&gt;&lt;br&gt;&lt;b&gt;AggregateRoot&lt;/b&gt;&lt;/p&gt;&lt;hr size=&quot;1&quot;&gt;&lt;p style=&quot;margin:0px;margin-left:4px;&quot;&gt;- domainEvents: Array&amp;lt;DomainEvent&amp;gt;&lt;br&gt;&lt;/p&gt;&lt;hr size=&quot;1&quot;&gt;&lt;p style=&quot;margin:0px;margin-left:4px;&quot;&gt;+ pullDomainEvents(): Array&amp;lt;DomainEvent&amp;gt;&lt;br&gt;+ record(event: DomainEvent): void&lt;/p&gt;" style="verticalAlign=top;align=left;overflow=fill;fontSize=12;fontFamily=Helvetica;html=1;shadow=1;fillStyle=auto;strokeWidth=4;strokeColor=#76608A;" vertex="1" parent="118">
                    <mxGeometry x="44" y="1001" width="261" height="114" as="geometry"/>
                </mxCell>
                <mxCell id="62" value="" style="endArrow=block;dashed=1;endFill=0;endSize=12;html=1;fontSize=13;entryX=0.5;entryY=0;entryDx=0;entryDy=0;exitX=0.553;exitY=1.004;exitDx=0;exitDy=0;exitPerimeter=0;" edge="1" parent="118" source="54" target="61">
                    <mxGeometry width="160" relative="1" as="geometry">
                        <mxPoint x="-128" y="837" as="sourcePoint"/>
                        <mxPoint x="32" y="837" as="targetPoint"/>
                    </mxGeometry>
                </mxCell>
                <mxCell id="63" value="&lt;font color=&quot;#000000&quot;&gt;&lt;b&gt;InMemoryEventBus&lt;/b&gt;&lt;/font&gt;" style="swimlane;fontStyle=0;childLayout=stackLayout;horizontal=1;startSize=26;fillColor=#1BA1E2;horizontalStack=0;resizeParent=1;resizeParentMax=0;resizeLast=0;collapsible=1;marginBottom=0;whiteSpace=wrap;html=1;swimlaneFillColor=default;strokeColor=#006EAF;fontColor=#ffffff;" vertex="1" parent="118">
                    <mxGeometry x="5.5" y="219" width="318" height="92" as="geometry"/>
                </mxCell>
                <mxCell id="66" value="+ publish(events: DomainEvent[])&lt;br&gt;+ addSubscribers(subscribers: DomainEventSubscribers)" style="text;strokeColor=none;fillColor=none;align=left;verticalAlign=top;spacingLeft=4;spacingRight=4;overflow=hidden;rotatable=0;points=[[0,0.5],[1,0.5]];portConstraint=eastwest;whiteSpace=wrap;html=1;" vertex="1" parent="63">
                    <mxGeometry y="26" width="318" height="66" as="geometry"/>
                </mxCell>
                <mxCell id="111" value="&lt;b&gt;Note&lt;/b&gt;: See a concrete example implementation (using the events package) of an InMemoryEventBus in the bottom right corner of the diagram." style="text;html=1;strokeColor=none;fillColor=none;align=left;verticalAlign=middle;whiteSpace=wrap;rounded=0;shadow=1;fillStyle=auto;fontSize=13;spacingLeft=16;" vertex="1" parent="118">
                    <mxGeometry x="326" y="219" width="277" height="96" as="geometry"/>
                </mxCell>
                <mxCell id="119" value="" style="group" vertex="1" connectable="0" parent="1">
                    <mxGeometry x="764" y="41" width="1532" height="1203" as="geometry"/>
                </mxCell>
                <mxCell id="9" value="&lt;h1&gt;&lt;font style=&quot;font-size: 24px;&quot;&gt;SUBSCRIBER ZONE&lt;/font&gt;&lt;/h1&gt;&lt;p&gt;It represents the example of a use case (&lt;i&gt;CourseCreator&lt;/i&gt;) instantiating an aggregate (Course), retrieving the domain events of that aggregate (in this case, &lt;i&gt;CourseCreated&lt;/i&gt;) and launching it through the event bus outwards.&lt;br&gt;&lt;/p&gt;" style="text;html=1;strokeColor=none;fillColor=none;spacing=5;spacingTop=-20;whiteSpace=wrap;overflow=hidden;rounded=0;fontSize=19;" vertex="1" parent="119">
                    <mxGeometry width="499" height="187" as="geometry"/>
                </mxCell>
                <mxCell id="15" value="&lt;font color=&quot;#000000&quot;&gt;CreateBackOfficeCourseOnCourseCreated&lt;/font&gt;" style="swimlane;fontStyle=0;childLayout=stackLayout;horizontal=1;startSize=26;fillColor=#f8cecc;horizontalStack=0;resizeParent=1;resizeParentMax=0;resizeLast=0;collapsible=1;marginBottom=0;whiteSpace=wrap;html=1;strokeColor=#b85450;" vertex="1" parent="119">
                    <mxGeometry x="29" y="242" width="376" height="115" as="geometry"/>
                </mxCell>
                <mxCell id="17" value="+ constructor(otherUseCase: any)" style="text;strokeColor=none;fillColor=none;align=left;verticalAlign=top;spacingLeft=4;spacingRight=4;overflow=hidden;rotatable=0;points=[[0,0.5],[1,0.5]];portConstraint=eastwest;whiteSpace=wrap;html=1;" vertex="1" parent="15">
                    <mxGeometry y="26" width="376" height="26" as="geometry"/>
                </mxCell>
                <mxCell id="18" value="+ subscribedTo(): DomainEventClass[]&lt;br&gt;+ on(domainEvent: CourseCreatedDomainEvent): Promise&amp;lt;void&amp;gt;&lt;br&gt;" style="text;strokeColor=none;fillColor=none;align=left;verticalAlign=top;spacingLeft=4;spacingRight=4;overflow=hidden;rotatable=0;points=[[0,0.5],[1,0.5]];portConstraint=eastwest;whiteSpace=wrap;html=1;" vertex="1" parent="15">
                    <mxGeometry y="52" width="376" height="63" as="geometry"/>
                </mxCell>
                <mxCell id="20" value="&lt;p style=&quot;margin:0px;margin-top:4px;text-align:center;&quot;&gt;&lt;i&gt;&amp;lt;&amp;lt;Interface&amp;gt;&amp;gt;&lt;/i&gt;&lt;br&gt;&lt;b&gt;DomainEventSubscriber&amp;lt;T extends DomainEvent&amp;gt;&lt;/b&gt;&lt;/p&gt;&lt;hr size=&quot;1&quot; style=&quot;border-style:solid;&quot;&gt;&lt;p style=&quot;margin:0px;margin-left:4px;&quot;&gt;+ subscribedTo(): Array&amp;lt;DomainEventClass&amp;gt;&lt;br&gt;+ on(domainEvent: T): Promise&amp;lt;void&amp;gt;&lt;/p&gt;&lt;p style=&quot;margin:0px;margin-left:4px;&quot;&gt;&lt;br&gt;&lt;/p&gt;" style="verticalAlign=top;align=left;overflow=fill;html=1;whiteSpace=wrap;strokeWidth=4;strokeColor=#76608A;" vertex="1" parent="119">
                    <mxGeometry x="29" y="451" width="376" height="88" as="geometry"/>
                </mxCell>
                <mxCell id="22" value="" style="endArrow=block;dashed=1;endFill=0;endSize=12;html=1;fontSize=24;entryX=0.5;entryY=0;entryDx=0;entryDy=0;" edge="1" parent="119" source="18" target="20">
                    <mxGeometry width="160" relative="1" as="geometry">
                        <mxPoint x="157" y="360" as="sourcePoint"/>
                        <mxPoint x="97" y="419" as="targetPoint"/>
                    </mxGeometry>
                </mxCell>
                <mxCell id="25" value="" style="shape=flexArrow;endArrow=classic;html=1;fontSize=10;entryX=1;entryY=0.5;entryDx=0;entryDy=0;" edge="1" parent="119" source="113" target="18">
                    <mxGeometry width="50" height="50" relative="1" as="geometry">
                        <mxPoint x="470" y="325.5" as="sourcePoint"/>
                        <mxPoint x="554" y="403" as="targetPoint"/>
                    </mxGeometry>
                </mxCell>
                <mxCell id="26" value="&lt;font style=&quot;font-size: 22px;&quot;&gt;🙂&lt;/font&gt;" style="text;whiteSpace=wrap;html=1;fontSize=10;" vertex="1" parent="119">
                    <mxGeometry x="436" y="259" width="34" height="39.5" as="geometry"/>
                </mxCell>
                <mxCell id="28" value="&lt;b&gt;&lt;font color=&quot;#000000&quot;&gt;DomainEventSubscribers&lt;/font&gt;&lt;/b&gt;" style="swimlane;fontStyle=1;align=center;verticalAlign=top;childLayout=stackLayout;horizontal=1;startSize=21;horizontalStack=0;resizeParent=1;resizeParentMax=0;resizeLast=0;collapsible=1;marginBottom=0;whiteSpace=wrap;html=1;fillColor=#1ba1e2;fontColor=#ffffff;strokeColor=#006EAF;" vertex="1" parent="119">
                    <mxGeometry x="29" y="628.5" width="421" height="103" as="geometry">
                        <mxRectangle x="-103" y="373" width="95" height="26" as="alternateBounds"/>
                    </mxGeometry>
                </mxCell>
                <mxCell id="29" value="&lt;p style=&quot;margin: 0px 0px 0px 4px;&quot;&gt;+ constructor(items: Array&amp;lt;DomainEventSubscriber&amp;lt;DomainEvent&amp;gt;&amp;gt;&lt;br&gt;&lt;/p&gt;" style="text;strokeColor=none;fillColor=none;align=left;verticalAlign=top;spacingLeft=4;spacingRight=4;overflow=hidden;rotatable=0;points=[[0,0.5],[1,0.5]];portConstraint=eastwest;whiteSpace=wrap;html=1;" vertex="1" parent="28">
                    <mxGeometry y="21" width="421" height="33" as="geometry"/>
                </mxCell>
                <mxCell id="30" value="" style="line;strokeWidth=1;fillColor=none;align=left;verticalAlign=middle;spacingTop=-1;spacingLeft=3;spacingRight=3;rotatable=0;labelPosition=right;points=[];portConstraint=eastwest;strokeColor=inherit;" vertex="1" parent="28">
                    <mxGeometry y="54" width="421" height="8" as="geometry"/>
                </mxCell>
                <mxCell id="31" value="+ static from(container: ContainerBuilder&amp;nbsp;&lt;font style=&quot;font-size: 13px;&quot;&gt;📦&lt;/font&gt;): DomainEventSubscribers" style="text;strokeColor=none;fillColor=none;align=left;verticalAlign=top;spacingLeft=4;spacingRight=4;overflow=hidden;rotatable=0;points=[[0,0.5],[1,0.5]];portConstraint=eastwest;whiteSpace=wrap;html=1;" vertex="1" parent="28">
                    <mxGeometry y="62" width="421" height="41" as="geometry"/>
                </mxCell>
                <mxCell id="32" value="&lt;b&gt;BackofficeBackendApp&lt;/b&gt;" style="swimlane;fontStyle=1;align=center;verticalAlign=top;childLayout=stackLayout;horizontal=1;startSize=21;horizontalStack=0;resizeParent=1;resizeParentMax=0;resizeLast=0;collapsible=1;marginBottom=0;whiteSpace=wrap;html=1;" vertex="1" parent="119">
                    <mxGeometry x="541" y="443.5" width="251" height="103" as="geometry">
                        <mxRectangle x="-103" y="373" width="95" height="26" as="alternateBounds"/>
                    </mxGeometry>
                </mxCell>
                <mxCell id="33" value="&lt;p style=&quot;margin: 0px 0px 0px 4px;&quot;&gt;+ start()&lt;br&gt;&lt;/p&gt;" style="text;strokeColor=none;fillColor=none;align=left;verticalAlign=top;spacingLeft=4;spacingRight=4;overflow=hidden;rotatable=0;points=[[0,0.5],[1,0.5]];portConstraint=eastwest;whiteSpace=wrap;html=1;" vertex="1" parent="32">
                    <mxGeometry y="21" width="251" height="33" as="geometry"/>
                </mxCell>
                <mxCell id="34" value="" style="line;strokeWidth=1;fillColor=none;align=left;verticalAlign=middle;spacingTop=-1;spacingLeft=3;spacingRight=3;rotatable=0;labelPosition=right;points=[];portConstraint=eastwest;strokeColor=inherit;" vertex="1" parent="32">
                    <mxGeometry y="54" width="251" height="8" as="geometry"/>
                </mxCell>
                <mxCell id="35" value="- configureEventBus()&amp;nbsp;&lt;font style=&quot;font-size: 13px;&quot;&gt;📦&lt;/font&gt;" style="text;strokeColor=none;fillColor=none;align=left;verticalAlign=top;spacingLeft=4;spacingRight=4;overflow=hidden;rotatable=0;points=[[0,0.5],[1,0.5]];portConstraint=eastwest;whiteSpace=wrap;html=1;" vertex="1" parent="32">
                    <mxGeometry y="62" width="251" height="41" as="geometry"/>
                </mxCell>
                <mxCell id="39" value="&lt;div style=&quot;color: rgb(247, 241, 255); background-color: rgb(34, 34, 34); font-family: &amp;quot;Fira Code&amp;quot;, Menlo, Monaco, &amp;quot;Courier New&amp;quot;, monospace, Menlo, Monaco, &amp;quot;Courier New&amp;quot;, monospace; font-size: 12px; line-height: 18px;&quot;&gt;&lt;pre&gt;&lt;span style=&quot;color: #fc618d;font-style: italic;&quot;&gt;private&lt;/span&gt; &lt;span style=&quot;color: #fc618d;font-style: italic;&quot;&gt;async&lt;/span&gt; &lt;span style=&quot;color: #7bd88f;&quot;&gt;configureEventBus&lt;/span&gt;&lt;span style=&quot;color: #8b888f;&quot;&gt;()&lt;/span&gt; &lt;span style=&quot;color: #8b888f;&quot;&gt;{&lt;br&gt;&lt;/span&gt;&lt;span style=&quot;color: #5ad4e6;font-style: italic;&quot;&gt;  const&lt;/span&gt; &lt;span style=&quot;color: #948ae3;&quot;&gt;eventBus&lt;/span&gt; &lt;span style=&quot;color: #fc618d;&quot;&gt;=&lt;/span&gt; container&lt;span style=&quot;color: #8b888f;&quot;&gt;.&lt;/span&gt;&lt;span style=&quot;color: #7bd88f;&quot;&gt;get&lt;/span&gt;&lt;span style=&quot;color: #8b888f;&quot;&gt;&amp;lt;&lt;/span&gt;&lt;span style=&quot;color: #5ad4e6;&quot;&gt;EventBus&lt;/span&gt;&lt;span style=&quot;color: #8b888f;&quot;&gt;&amp;gt;(&lt;/span&gt;&lt;span style=&quot;color: #8b888f;&quot;&gt;'&lt;/span&gt;&lt;span style=&quot;color: #fce566;&quot;&gt;Backoffice.Shared.domain.EventBus&lt;/span&gt;&lt;span style=&quot;color: #8b888f;&quot;&gt;'&lt;/span&gt;&lt;span style=&quot;color: #8b888f;&quot;&gt;);&lt;/span&gt;&lt;br&gt;&lt;/pre&gt;&lt;div&gt;&amp;nbsp; eventBus&lt;span style=&quot;color: #8b888f;&quot;&gt;.&lt;/span&gt;&lt;span style=&quot;color: #7bd88f;&quot;&gt;addSubscribers&lt;/span&gt;&lt;span style=&quot;color: #8b888f;&quot;&gt;(&lt;/span&gt;DomainEventSubscribers&lt;span style=&quot;color: #8b888f;&quot;&gt;.&lt;/span&gt;&lt;span style=&quot;color: #7bd88f;&quot;&gt;from&lt;/span&gt;&lt;span style=&quot;color: #8b888f;&quot;&gt;(&lt;/span&gt;container&lt;span style=&quot;color: #8b888f;&quot;&gt;));&lt;/span&gt;&lt;/div&gt;&lt;div&gt;  &lt;span style=&quot;color: #8b888f;&quot;&gt;}&lt;/span&gt;&lt;/div&gt;&lt;/div&gt;" style="shape=note;size=20;whiteSpace=wrap;html=1;shadow=1;fontSize=13;align=left;" vertex="1" parent="119">
                    <mxGeometry x="545" y="628.5" width="597" height="138" as="geometry"/>
                </mxCell>
                <mxCell id="41" value="1" style="endArrow=open;html=1;endSize=12;startArrow=diamondThin;startSize=14;startFill=0;edgeStyle=orthogonalEdgeStyle;align=left;verticalAlign=bottom;fontSize=13;entryX=0.5;entryY=1;entryDx=0;entryDy=0;exitX=0.5;exitY=0;exitDx=0;exitDy=0;" edge="1" parent="119" source="28" target="20">
                    <mxGeometry x="-1" y="3" relative="1" as="geometry">
                        <mxPoint x="218" y="596" as="sourcePoint"/>
                        <mxPoint x="399" y="791" as="targetPoint"/>
                    </mxGeometry>
                </mxCell>
                <mxCell id="42" value="Use" style="endArrow=open;endSize=12;dashed=1;html=1;fontSize=13;entryX=1.008;entryY=-0.12;entryDx=0;entryDy=0;entryPerimeter=0;exitX=0;exitY=0.5;exitDx=0;exitDy=0;" edge="1" parent="119" source="35" target="31">
                    <mxGeometry width="160" relative="1" as="geometry">
                        <mxPoint x="602" y="681" as="sourcePoint"/>
                        <mxPoint x="762" y="681" as="targetPoint"/>
                    </mxGeometry>
                </mxCell>
                <mxCell id="43" value="&lt;div style=&quot;background-color: rgb(34, 34, 34); font-family: &amp;quot;Fira Code&amp;quot;, Menlo, Monaco, &amp;quot;Courier New&amp;quot;, monospace, Menlo, Monaco, &amp;quot;Courier New&amp;quot;, monospace; font-weight: normal; font-size: 12px; line-height: 18px;&quot;&gt;&lt;pre style=&quot;color: rgb(247, 241, 255);&quot;&gt;&lt;span style=&quot;color: #fc618d;&quot;&gt;export&lt;/span&gt;&lt;span style=&quot;color: #f7f1ff;&quot;&gt; &lt;/span&gt;&lt;span style=&quot;color: #5ad4e6;font-style: italic;&quot;&gt;class&lt;/span&gt;&lt;span style=&quot;color: #f7f1ff;&quot;&gt; &lt;/span&gt;&lt;span style=&quot;color: #5ad4e6;&quot;&gt;DomainEventSubscribers&lt;/span&gt;&lt;span style=&quot;color: #f7f1ff;&quot;&gt; &lt;/span&gt;&lt;span style=&quot;color: #8b888f;&quot;&gt;{&lt;br&gt;&lt;/span&gt;&lt;span style=&quot;color: #5ad4e6;font-style: italic;&quot;&gt;  constructor&lt;/span&gt;&lt;span style=&quot;color: #8b888f;&quot;&gt;(&lt;/span&gt;&lt;span style=&quot;color: #fc618d;font-style: italic;&quot;&gt;public&lt;/span&gt;&lt;span style=&quot;color: #f7f1ff;&quot;&gt; &lt;/span&gt;&lt;span style=&quot;color: #fd9353;font-style: italic;&quot;&gt;items&lt;/span&gt;&lt;span style=&quot;color: #8b888f;&quot;&gt;:&lt;/span&gt;&lt;span style=&quot;color: #f7f1ff;&quot;&gt; &lt;/span&gt;&lt;span style=&quot;color: #5ad4e6;&quot;&gt;Array&lt;/span&gt;&lt;span style=&quot;color: #8b888f;&quot;&gt;&amp;lt;&lt;/span&gt;&lt;span style=&quot;color: #5ad4e6;&quot;&gt;DomainEventSubscriber&lt;/span&gt;&lt;span style=&quot;color: #8b888f;&quot;&gt;&amp;lt;&lt;/span&gt;&lt;span style=&quot;color: #5ad4e6;&quot;&gt;DomainEvent&lt;/span&gt;&lt;span style=&quot;color: #8b888f;&quot;&gt;&amp;gt;&amp;gt;)&lt;/span&gt;&lt;span style=&quot;color: #f7f1ff;&quot;&gt; &lt;/span&gt;&lt;span style=&quot;color: #8b888f;&quot;&gt;{}&lt;/span&gt;&lt;/pre&gt;&lt;br&gt;&lt;div style=&quot;color: rgb(247, 241, 255);&quot;&gt;&lt;span style=&quot;color: #f7f1ff;&quot;&gt;&lt;/span&gt;&lt;span style=&quot;color: #fc618d;font-style: italic;&quot;&gt;&amp;nbsp; static&lt;/span&gt;&lt;span style=&quot;color: #f7f1ff;&quot;&gt; &lt;/span&gt;&lt;span style=&quot;color: #7bd88f;&quot;&gt;from&lt;/span&gt;&lt;span style=&quot;color: #8b888f;&quot;&gt;(&lt;/span&gt;&lt;span style=&quot;color: #fd9353;font-style: italic;&quot;&gt;container&lt;/span&gt;&lt;span style=&quot;color: #8b888f;&quot;&gt;:&lt;/span&gt;&lt;span style=&quot;color: #f7f1ff;&quot;&gt; &lt;/span&gt;&lt;span style=&quot;color: #5ad4e6;&quot;&gt;ContainerBuilder&lt;/span&gt;&lt;span style=&quot;color: #8b888f;&quot;&gt;):&lt;/span&gt;&lt;span style=&quot;color: #f7f1ff;&quot;&gt; &lt;/span&gt;&lt;span style=&quot;color: #5ad4e6;&quot;&gt;DomainEventSubscribers&lt;/span&gt;&lt;span style=&quot;color: #f7f1ff;&quot;&gt; &lt;/span&gt;&lt;span style=&quot;color: #8b888f;&quot;&gt;{&lt;/span&gt;&lt;/div&gt;&lt;div style=&quot;&quot;&gt;&lt;span style=&quot;color: #f7f1ff;&quot;&gt;&lt;/span&gt;&lt;span style=&quot;color: rgb(90, 212, 230); font-style: italic;&quot;&gt;&amp;nbsp; &amp;nbsp; const&lt;/span&gt;&lt;span style=&quot;color: rgb(247, 241, 255);&quot;&gt; &lt;/span&gt;&lt;span style=&quot;color: rgb(148, 138, 227);&quot;&gt;subscriberDefinitions&lt;/span&gt;&lt;span style=&quot;color: rgb(247, 241, 255);&quot;&gt; &lt;/span&gt;&lt;span style=&quot;color: rgb(252, 97, 141);&quot;&gt;=&lt;/span&gt;&lt;span style=&quot;color: rgb(247, 241, 255);&quot;&gt; container&lt;/span&gt;&lt;span style=&quot;color: rgb(139, 136, 143);&quot;&gt;.&lt;/span&gt;&lt;span style=&quot;color: rgb(123, 216, 143);&quot;&gt;findTaggedServiceIds&lt;/span&gt;&lt;span style=&quot;color: rgb(139, 136, 143);&quot;&gt;(&lt;/span&gt;&lt;span style=&quot;color: rgb(139, 136, 143);&quot;&gt;'&lt;/span&gt;&lt;span style=&quot;color: rgb(252, 229, 102);&quot;&gt;domainEventSubscriber&lt;/span&gt;&lt;span style=&quot;color: rgb(139, 136, 143);&quot;&gt;'&lt;/span&gt;&lt;span style=&quot;color: rgb(139, 136, 143);&quot;&gt;)&lt;/span&gt;&lt;font color=&quot;#f7f1ff&quot;&gt;&amp;nbsp;&lt;/font&gt;&lt;span style=&quot;color: rgb(252, 97, 141);&quot;&gt;as&lt;/span&gt;&lt;font color=&quot;#f7f1ff&quot;&gt;&amp;nbsp;&lt;/font&gt;&lt;span style=&quot;color: rgb(90, 212, 230);&quot;&gt;Map&lt;/span&gt;&lt;span style=&quot;color: rgb(139, 136, 143);&quot;&gt;&amp;lt;&lt;/span&gt;&lt;span style=&quot;color: rgb(90, 212, 230);&quot;&gt;String&lt;/span&gt;&lt;span style=&quot;color: rgb(139, 136, 143);&quot;&gt;,&lt;/span&gt;&lt;font color=&quot;#f7f1ff&quot;&gt;&amp;nbsp;&lt;/font&gt;&lt;span style=&quot;color: rgb(90, 212, 230);&quot;&gt;Definition&lt;/span&gt;&lt;span style=&quot;color: rgb(139, 136, 143);&quot;&gt;&amp;gt;;&lt;/span&gt;&lt;/div&gt;&lt;div style=&quot;color: rgb(247, 241, 255);&quot;&gt;&lt;span style=&quot;color: #f7f1ff;&quot;&gt;&lt;/span&gt;&lt;span style=&quot;color: #5ad4e6;font-style: italic;&quot;&gt;&amp;nbsp; &amp;nbsp; const&lt;/span&gt;&lt;span style=&quot;color: #f7f1ff;&quot;&gt; &lt;/span&gt;&lt;span style=&quot;color: #948ae3;&quot;&gt;subscribers&lt;/span&gt;&lt;span style=&quot;color: #8b888f;&quot;&gt;:&lt;/span&gt;&lt;span style=&quot;color: #f7f1ff;&quot;&gt; &lt;/span&gt;&lt;span style=&quot;color: #5ad4e6;&quot;&gt;Array&lt;/span&gt;&lt;span style=&quot;color: #8b888f;&quot;&gt;&amp;lt;&lt;/span&gt;&lt;span style=&quot;color: #5ad4e6;&quot;&gt;DomainEventSubscriber&lt;/span&gt;&lt;span style=&quot;color: #8b888f;&quot;&gt;&amp;lt;&lt;/span&gt;&lt;span style=&quot;color: #5ad4e6;&quot;&gt;DomainEvent&lt;/span&gt;&lt;span style=&quot;color: #8b888f;&quot;&gt;&amp;gt;&amp;gt;&lt;/span&gt;&lt;span style=&quot;color: #f7f1ff;&quot;&gt; &lt;/span&gt;&lt;span style=&quot;color: #fc618d;&quot;&gt;=&lt;/span&gt;&lt;span style=&quot;color: #f7f1ff;&quot;&gt; &lt;/span&gt;&lt;span style=&quot;color: #8b888f;&quot;&gt;[];&lt;/span&gt;&lt;/div&gt;&lt;br&gt;&lt;div style=&quot;color: rgb(247, 241, 255);&quot;&gt;&lt;span style=&quot;color: #f7f1ff;&quot;&gt;&amp;nbsp; &amp;nbsp; subscriberDefinitions&lt;/span&gt;&lt;span style=&quot;color: #8b888f;&quot;&gt;.&lt;/span&gt;&lt;span style=&quot;color: #7bd88f;&quot;&gt;forEach&lt;/span&gt;&lt;span style=&quot;color: #8b888f;&quot;&gt;((&lt;/span&gt;&lt;span style=&quot;color: #fd9353;font-style: italic;&quot;&gt;value&lt;/span&gt;&lt;span style=&quot;color: #8b888f;&quot;&gt;:&lt;/span&gt;&lt;span style=&quot;color: #f7f1ff;&quot;&gt; &lt;/span&gt;&lt;span style=&quot;color: #5ad4e6;&quot;&gt;Definition&lt;/span&gt;&lt;span style=&quot;color: #8b888f;&quot;&gt;,&lt;/span&gt;&lt;span style=&quot;color: #f7f1ff;&quot;&gt; &lt;/span&gt;&lt;span style=&quot;color: #fd9353;font-style: italic;&quot;&gt;key&lt;/span&gt;&lt;span style=&quot;color: #8b888f;&quot;&gt;:&lt;/span&gt;&lt;span style=&quot;color: #f7f1ff;&quot;&gt; &lt;/span&gt;&lt;span style=&quot;color: #5ad4e6;&quot;&gt;String&lt;/span&gt;&lt;span style=&quot;color: #8b888f;&quot;&gt;)&lt;/span&gt;&lt;span style=&quot;color: #f7f1ff;&quot;&gt; &lt;/span&gt;&lt;span style=&quot;color: #fc618d;&quot;&gt;=&amp;gt;&lt;/span&gt;&lt;span style=&quot;color: #f7f1ff;&quot;&gt; &lt;/span&gt;&lt;span style=&quot;color: #8b888f;&quot;&gt;{&lt;/span&gt;&lt;/div&gt;&lt;div style=&quot;color: rgb(247, 241, 255);&quot;&gt;&lt;span style=&quot;color: #f7f1ff;&quot;&gt;&lt;/span&gt;&lt;span style=&quot;color: #5ad4e6;font-style: italic;&quot;&gt;&amp;nbsp; &amp;nbsp; &amp;nbsp; const&lt;/span&gt;&lt;span style=&quot;color: #f7f1ff;&quot;&gt; &lt;/span&gt;&lt;span style=&quot;color: #948ae3;&quot;&gt;domainEventSubscriber&lt;/span&gt;&lt;span style=&quot;color: #f7f1ff;&quot;&gt; &lt;/span&gt;&lt;span style=&quot;color: #fc618d;&quot;&gt;=&lt;/span&gt;&lt;span style=&quot;color: #f7f1ff;&quot;&gt; container&lt;/span&gt;&lt;span style=&quot;color: #8b888f;&quot;&gt;.&lt;/span&gt;&lt;span style=&quot;color: #7bd88f;&quot;&gt;get&lt;/span&gt;&lt;span style=&quot;color: #8b888f;&quot;&gt;&amp;lt;&lt;/span&gt;&lt;span style=&quot;color: #5ad4e6;&quot;&gt;DomainEventSubscriber&lt;/span&gt;&lt;span style=&quot;color: #8b888f;&quot;&gt;&amp;lt;&lt;/span&gt;&lt;span style=&quot;color: #5ad4e6;&quot;&gt;DomainEvent&lt;/span&gt;&lt;span style=&quot;color: #8b888f;&quot;&gt;&amp;gt;&amp;gt;(&lt;/span&gt;&lt;span style=&quot;color: #f7f1ff;&quot;&gt;key&lt;/span&gt;&lt;span style=&quot;color: #8b888f;&quot;&gt;.&lt;/span&gt;&lt;span style=&quot;color: #7bd88f;&quot;&gt;toString&lt;/span&gt;&lt;span style=&quot;color: #8b888f;&quot;&gt;());&lt;/span&gt;&lt;/div&gt;&lt;div style=&quot;color: rgb(247, 241, 255);&quot;&gt;&lt;span style=&quot;color: #f7f1ff;&quot;&gt;&amp;nbsp; &amp;nbsp; &amp;nbsp; subscribers&lt;/span&gt;&lt;span style=&quot;color: #8b888f;&quot;&gt;.&lt;/span&gt;&lt;span style=&quot;color: #7bd88f;&quot;&gt;push&lt;/span&gt;&lt;span style=&quot;color: #8b888f;&quot;&gt;(&lt;/span&gt;&lt;span style=&quot;color: #f7f1ff;&quot;&gt;domainEventSubscriber&lt;/span&gt;&lt;span style=&quot;color: #8b888f;&quot;&gt;);&lt;/span&gt;&lt;/div&gt;&lt;div style=&quot;color: rgb(247, 241, 255);&quot;&gt;&lt;span style=&quot;color: #f7f1ff;&quot;&gt;&lt;/span&gt;&lt;span style=&quot;color: #8b888f;&quot;&gt;&amp;nbsp; &amp;nbsp; }&lt;/span&gt;&lt;span style=&quot;color: rgb(139, 136, 143);&quot;&gt;);&lt;/span&gt;&lt;/div&gt;&lt;br&gt;&lt;div style=&quot;color: rgb(247, 241, 255);&quot;&gt;&lt;span style=&quot;color: #f7f1ff;&quot;&gt;&lt;/span&gt;&lt;span style=&quot;color: #fc618d;&quot;&gt;&amp;nbsp; &amp;nbsp; return&lt;/span&gt;&lt;span style=&quot;color: #f7f1ff;&quot;&gt; &lt;/span&gt;&lt;span style=&quot;color: #fc618d;&quot;&gt;new&lt;/span&gt;&lt;span style=&quot;color: #f7f1ff;&quot;&gt; &lt;/span&gt;&lt;span style=&quot;color: #7bd88f;&quot;&gt;DomainEventSubscribers&lt;/span&gt;&lt;span style=&quot;color: #8b888f;&quot;&gt;(&lt;/span&gt;&lt;span style=&quot;color: #f7f1ff;&quot;&gt;subscribers&lt;/span&gt;&lt;span style=&quot;color: #8b888f;&quot;&gt;);&lt;/span&gt;&lt;/div&gt;&lt;div style=&quot;color: rgb(247, 241, 255);&quot;&gt;&lt;span style=&quot;color: #f7f1ff;&quot;&gt;&lt;/span&gt;&lt;span style=&quot;color: #8b888f;&quot;&gt;&amp;nbsp; }&lt;/span&gt;&lt;/div&gt;&lt;div style=&quot;color: rgb(247, 241, 255);&quot;&gt;&lt;span style=&quot;color: #8b888f;&quot;&gt;}&lt;/span&gt;&lt;/div&gt;&lt;/div&gt;" style="text;whiteSpace=wrap;html=1;fontSize=13;" vertex="1" parent="119">
                    <mxGeometry x="47" y="833" width="776" height="326" as="geometry"/>
                </mxCell>
                <mxCell id="40" value="Example" style="shape=flexArrow;endArrow=classic;html=1;fontSize=13;exitX=0.525;exitY=0.961;exitDx=0;exitDy=0;exitPerimeter=0;" edge="1" parent="119" source="35" target="39">
                    <mxGeometry x="-0.0013" width="50" height="50" relative="1" as="geometry">
                        <mxPoint x="752" y="860" as="sourcePoint"/>
                        <mxPoint x="802" y="810" as="targetPoint"/>
                        <mxPoint as="offset"/>
                    </mxGeometry>
                </mxCell>
                <mxCell id="46" value="Example" style="shape=flexArrow;endArrow=classic;html=1;fontSize=13;entryX=0.25;entryY=0;entryDx=0;entryDy=0;" edge="1" parent="119" source="31" target="43">
                    <mxGeometry x="-0.0013" width="50" height="50" relative="1" as="geometry">
                        <mxPoint x="233.0050000000001" y="749.0010000000001" as="sourcePoint"/>
                        <mxPoint x="322.57304388359444" y="829.1" as="targetPoint"/>
                        <mxPoint as="offset"/>
                    </mxGeometry>
                </mxCell>
                <mxCell id="59" value="&lt;b&gt;Note&lt;/b&gt;: Subscribers are retrieved through the DI container (📦) via tags ('domainEventSubscriber'). This is an implementation detail specific to this DI container." style="text;html=1;strokeColor=none;fillColor=none;align=left;verticalAlign=middle;whiteSpace=wrap;rounded=0;shadow=1;fillStyle=auto;fontSize=13;" vertex="1" parent="119">
                    <mxGeometry x="56" y="1164" width="760" height="30" as="geometry"/>
                </mxCell>
                <mxCell id="113" value="&lt;font style=&quot;font-size: 13px;&quot;&gt;&lt;b&gt;Note&lt;/b&gt;: Here comes the triggered event, so we have finally managed to connect the two modules (or bounded context) via the event bus, with little coupling.&amp;nbsp;&lt;/font&gt;" style="text;html=1;strokeColor=none;fillColor=none;align=left;verticalAlign=middle;whiteSpace=wrap;rounded=0;shadow=1;fillStyle=auto;fontSize=13;spacingLeft=16;" vertex="1" parent="119">
                    <mxGeometry x="484" y="287" width="277" height="96" as="geometry"/>
                </mxCell>
                <mxCell id="114" value="&lt;font style=&quot;font-size: 13px;&quot;&gt;&lt;b&gt;Note&lt;/b&gt;: It represents the entry point to the application, module or bounded context, where the event bus is first configured.&lt;/font&gt;" style="text;html=1;strokeColor=none;fillColor=none;align=left;verticalAlign=middle;whiteSpace=wrap;rounded=0;shadow=1;fillStyle=auto;fontSize=13;spacingLeft=16;" vertex="1" parent="119">
                    <mxGeometry x="798" y="431" width="203" height="96" as="geometry"/>
                </mxCell>
                <mxCell id="121" value="" style="group" vertex="1" connectable="0" parent="119">
                    <mxGeometry x="-706" y="1151" width="650" height="404" as="geometry"/>
                </mxCell>
                <mxCell id="110" value="&lt;div style=&quot;color: rgb(247, 241, 255); background-color: rgb(34, 34, 34); font-family: &amp;quot;Fira Code&amp;quot;, Menlo, Monaco, &amp;quot;Courier New&amp;quot;, monospace, Menlo, Monaco, &amp;quot;Courier New&amp;quot;, monospace; font-weight: normal; font-size: 12px; line-height: 18px;&quot;&gt;&lt;pre&gt;&lt;span style=&quot;color: #fc618d;&quot;&gt;import&lt;/span&gt;&lt;span style=&quot;color: #f7f1ff;&quot;&gt; &lt;/span&gt;&lt;span style=&quot;color: #8b888f;&quot;&gt;{&lt;/span&gt;&lt;span style=&quot;color: #f7f1ff;&quot;&gt; EventEmitter &lt;/span&gt;&lt;span style=&quot;color: #8b888f;&quot;&gt;}&lt;/span&gt;&lt;span style=&quot;color: #f7f1ff;&quot;&gt; &lt;/span&gt;&lt;span style=&quot;color: #fc618d;&quot;&gt;from&lt;/span&gt;&lt;span style=&quot;color: #f7f1ff;&quot;&gt; &lt;/span&gt;&lt;span style=&quot;color: #8b888f;&quot;&gt;'&lt;/span&gt;&lt;span style=&quot;color: #fce566;&quot;&gt;events&lt;/span&gt;&lt;span style=&quot;color: #8b888f;&quot;&gt;';&lt;br&gt;&lt;/span&gt;&lt;span style=&quot;color: #fc618d;&quot;&gt;import&lt;/span&gt;&lt;span style=&quot;color: #f7f1ff;&quot;&gt; &lt;/span&gt;&lt;span style=&quot;color: #8b888f;&quot;&gt;{&lt;/span&gt;&lt;span style=&quot;color: #f7f1ff;&quot;&gt; DomainEvent &lt;/span&gt;&lt;span style=&quot;color: #8b888f;&quot;&gt;}&lt;/span&gt;&lt;span style=&quot;color: #f7f1ff;&quot;&gt; &lt;/span&gt;&lt;span style=&quot;color: #fc618d;&quot;&gt;from&lt;/span&gt;&lt;span style=&quot;color: #f7f1ff;&quot;&gt; &lt;/span&gt;&lt;span style=&quot;color: #8b888f;&quot;&gt;'&lt;/span&gt;&lt;span style=&quot;color: #fce566;&quot;&gt;../../../domain/DomainEvent&lt;/span&gt;&lt;span style=&quot;color: #8b888f;&quot;&gt;';&lt;br&gt;&lt;/span&gt;&lt;span style=&quot;color: #fc618d;&quot;&gt;import&lt;/span&gt;&lt;span style=&quot;color: #f7f1ff;&quot;&gt; &lt;/span&gt;&lt;span style=&quot;color: #8b888f;&quot;&gt;{&lt;/span&gt;&lt;span style=&quot;color: #f7f1ff;&quot;&gt; EventBus &lt;/span&gt;&lt;span style=&quot;color: #8b888f;&quot;&gt;}&lt;/span&gt;&lt;span style=&quot;color: #f7f1ff;&quot;&gt; &lt;/span&gt;&lt;span style=&quot;color: #fc618d;&quot;&gt;from&lt;/span&gt;&lt;span style=&quot;color: #f7f1ff;&quot;&gt; &lt;/span&gt;&lt;span style=&quot;color: #8b888f;&quot;&gt;'&lt;/span&gt;&lt;span style=&quot;color: #fce566;&quot;&gt;../../../domain/EventBus&lt;/span&gt;&lt;span style=&quot;color: #8b888f;&quot;&gt;';&lt;br&gt;&lt;/span&gt;&lt;span style=&quot;color: #fc618d;&quot;&gt;import&lt;/span&gt;&lt;span style=&quot;color: #f7f1ff;&quot;&gt; &lt;/span&gt;&lt;span style=&quot;color: #8b888f;&quot;&gt;{&lt;/span&gt;&lt;span style=&quot;color: #f7f1ff;&quot;&gt; DomainEventSubscribers &lt;/span&gt;&lt;span style=&quot;color: #8b888f;&quot;&gt;}&lt;/span&gt;&lt;span style=&quot;color: #f7f1ff;&quot;&gt; &lt;/span&gt;&lt;span style=&quot;color: #fc618d;&quot;&gt;from&lt;/span&gt;&lt;span style=&quot;color: #f7f1ff;&quot;&gt; &lt;/span&gt;&lt;span style=&quot;color: #8b888f;&quot;&gt;'&lt;/span&gt;&lt;span style=&quot;color: #fce566;&quot;&gt;../DomainEventSubscribers&lt;/span&gt;&lt;span style=&quot;color: #8b888f;&quot;&gt;';&lt;/span&gt;&lt;/pre&gt;&lt;div&gt;&lt;span style=&quot;color: #fc618d;&quot;&gt;export&lt;/span&gt;&lt;span style=&quot;color: #f7f1ff;&quot;&gt; &lt;/span&gt;&lt;span style=&quot;color: #5ad4e6;font-style: italic;&quot;&gt;class&lt;/span&gt;&lt;span style=&quot;color: #f7f1ff;&quot;&gt; &lt;/span&gt;&lt;span style=&quot;color: #5ad4e6;&quot;&gt;InMemoryAsyncEventBus&lt;/span&gt;&lt;span style=&quot;color: #f7f1ff;&quot;&gt; &lt;/span&gt;&lt;span style=&quot;color: #fc618d;font-style: italic;&quot;&gt;extends&lt;/span&gt;&lt;span style=&quot;color: #f7f1ff;&quot;&gt; &lt;/span&gt;&lt;span style=&quot;color: #5ad4e6;font-style: italic;&quot;&gt;EventEmitter&lt;/span&gt;&lt;span style=&quot;color: #f7f1ff;&quot;&gt; &lt;/span&gt;&lt;span style=&quot;color: #fc618d;font-style: italic;&quot;&gt;implements&lt;/span&gt;&lt;span style=&quot;color: #f7f1ff;&quot;&gt; &lt;/span&gt;&lt;span style=&quot;color: #5ad4e6;font-style: italic;&quot;&gt;EventBus&lt;/span&gt;&lt;span style=&quot;color: #f7f1ff;&quot;&gt; &lt;/span&gt;&lt;span style=&quot;color: #8b888f;&quot;&gt;{&lt;/span&gt;&lt;/div&gt;&lt;div&gt;&lt;span style=&quot;color: #f7f1ff;&quot;&gt;&lt;/span&gt;&lt;span style=&quot;color: #fc618d;font-style: italic;&quot;&gt;&amp;nbsp; async&lt;/span&gt;&lt;span style=&quot;color: #f7f1ff;&quot;&gt; &lt;/span&gt;&lt;span style=&quot;color: #7bd88f;&quot;&gt;publish&lt;/span&gt;&lt;span style=&quot;color: #8b888f;&quot;&gt;(&lt;/span&gt;&lt;span style=&quot;color: #fd9353;font-style: italic;&quot;&gt;events&lt;/span&gt;&lt;span style=&quot;color: #8b888f;&quot;&gt;:&lt;/span&gt;&lt;span style=&quot;color: #f7f1ff;&quot;&gt; &lt;/span&gt;&lt;span style=&quot;color: #5ad4e6;&quot;&gt;DomainEvent&lt;/span&gt;&lt;span style=&quot;color: #8b888f;&quot;&gt;[]):&lt;/span&gt;&lt;span style=&quot;color: #f7f1ff;&quot;&gt; &lt;/span&gt;&lt;span style=&quot;color: #5ad4e6;&quot;&gt;Promise&lt;/span&gt;&lt;span style=&quot;color: #8b888f;&quot;&gt;&amp;lt;&lt;/span&gt;&lt;span style=&quot;color: #5ad4e6;font-style: italic;&quot;&gt;void&lt;/span&gt;&lt;span style=&quot;color: #8b888f;&quot;&gt;&amp;gt;&lt;/span&gt;&lt;span style=&quot;color: #f7f1ff;&quot;&gt; &lt;/span&gt;&lt;span style=&quot;color: #8b888f;&quot;&gt;{&lt;/span&gt;&lt;/div&gt;&lt;div&gt;&lt;span style=&quot;color: #f7f1ff;&quot;&gt;&amp;nbsp; &amp;nbsp; events&lt;/span&gt;&lt;span style=&quot;color: #8b888f;&quot;&gt;.&lt;/span&gt;&lt;span style=&quot;color: #7bd88f;&quot;&gt;map&lt;/span&gt;&lt;span style=&quot;color: #8b888f;&quot;&gt;(&lt;/span&gt;&lt;span style=&quot;color: #fd9353;font-style: italic;&quot;&gt;event&lt;/span&gt;&lt;span style=&quot;color: #f7f1ff;&quot;&gt; &lt;/span&gt;&lt;span style=&quot;color: #fc618d;&quot;&gt;=&amp;gt;&lt;/span&gt;&lt;span style=&quot;color: #f7f1ff;&quot;&gt; &lt;/span&gt;&lt;span style=&quot;color: #bab6c0;font-style: italic;&quot;&gt;this&lt;/span&gt;&lt;span style=&quot;color: #8b888f;&quot;&gt;.&lt;/span&gt;&lt;span style=&quot;color: #7bd88f;&quot;&gt;emit&lt;/span&gt;&lt;span style=&quot;color: #8b888f;&quot;&gt;(&lt;/span&gt;&lt;span style=&quot;color: #f7f1ff;&quot;&gt;event&lt;/span&gt;&lt;span style=&quot;color: #8b888f;&quot;&gt;.&lt;/span&gt;&lt;span style=&quot;color: #f7f1ff;&quot;&gt;eventName&lt;/span&gt;&lt;span style=&quot;color: #8b888f;&quot;&gt;,&lt;/span&gt;&lt;span style=&quot;color: #f7f1ff;&quot;&gt; event&lt;/span&gt;&lt;span style=&quot;color: #8b888f;&quot;&gt;));&lt;/span&gt;&lt;/div&gt;&lt;div&gt;&lt;span style=&quot;color: #f7f1ff;&quot;&gt;&lt;/span&gt;&lt;span style=&quot;color: #8b888f;&quot;&gt;&amp;nbsp; }&lt;/span&gt;&lt;/div&gt;&lt;br&gt;&lt;div&gt;&lt;span style=&quot;color: #f7f1ff;&quot;&gt;&lt;/span&gt;&lt;span style=&quot;color: #7bd88f;&quot;&gt;&amp;nbsp; addSubscribers&lt;/span&gt;&lt;span style=&quot;color: #8b888f;&quot;&gt;(&lt;/span&gt;&lt;span style=&quot;color: #fd9353;font-style: italic;&quot;&gt;subscribers&lt;/span&gt;&lt;span style=&quot;color: #8b888f;&quot;&gt;:&lt;/span&gt;&lt;span style=&quot;color: #f7f1ff;&quot;&gt; &lt;/span&gt;&lt;span style=&quot;color: #5ad4e6;&quot;&gt;DomainEventSubscribers&lt;/span&gt;&lt;span style=&quot;color: #8b888f;&quot;&gt;)&lt;/span&gt;&lt;span style=&quot;color: #f7f1ff;&quot;&gt; &lt;/span&gt;&lt;span style=&quot;color: #8b888f;&quot;&gt;{&lt;/span&gt;&lt;/div&gt;&lt;div&gt;&lt;span style=&quot;color: #f7f1ff;&quot;&gt;&amp;nbsp; &amp;nbsp; subscribers&lt;/span&gt;&lt;span style=&quot;color: #8b888f;&quot;&gt;.&lt;/span&gt;&lt;span style=&quot;color: #f7f1ff;&quot;&gt;items&lt;/span&gt;&lt;span style=&quot;color: #8b888f;&quot;&gt;.&lt;/span&gt;&lt;span style=&quot;color: #7bd88f;&quot;&gt;forEach&lt;/span&gt;&lt;span style=&quot;color: #8b888f;&quot;&gt;(&lt;/span&gt;&lt;span style=&quot;color: #fd9353;font-style: italic;&quot;&gt;subscriber&lt;/span&gt;&lt;span style=&quot;color: #f7f1ff;&quot;&gt; &lt;/span&gt;&lt;span style=&quot;color: #fc618d;&quot;&gt;=&amp;gt;&lt;/span&gt;&lt;span style=&quot;color: #f7f1ff;&quot;&gt; &lt;/span&gt;&lt;span style=&quot;color: #8b888f;&quot;&gt;{&lt;/span&gt;&lt;/div&gt;&lt;div&gt;&lt;span style=&quot;color: #f7f1ff;&quot;&gt;&amp;nbsp; &amp;nbsp; &amp;nbsp; subscriber&lt;/span&gt;&lt;span style=&quot;color: #8b888f;&quot;&gt;.&lt;/span&gt;&lt;span style=&quot;color: #7bd88f;&quot;&gt;subscribedTo&lt;/span&gt;&lt;span style=&quot;color: #8b888f;&quot;&gt;().&lt;/span&gt;&lt;span style=&quot;color: #7bd88f;&quot;&gt;forEach&lt;/span&gt;&lt;span style=&quot;color: #8b888f;&quot;&gt;(&lt;/span&gt;&lt;span style=&quot;color: #fd9353;font-style: italic;&quot;&gt;event&lt;/span&gt;&lt;span style=&quot;color: #f7f1ff;&quot;&gt; &lt;/span&gt;&lt;span style=&quot;color: #fc618d;&quot;&gt;=&amp;gt;&lt;/span&gt;&lt;span style=&quot;color: #f7f1ff;&quot;&gt; &lt;/span&gt;&lt;span style=&quot;color: #8b888f;&quot;&gt;{&lt;/span&gt;&lt;/div&gt;&lt;div&gt;&lt;span style=&quot;color: #f7f1ff;&quot;&gt;&lt;/span&gt;&lt;span style=&quot;color: #bab6c0;font-style: italic;&quot;&gt;&amp;nbsp; &amp;nbsp; &amp;nbsp; &amp;nbsp; this&lt;/span&gt;&lt;span style=&quot;color: #8b888f;&quot;&gt;.&lt;/span&gt;&lt;span style=&quot;color: #7bd88f;&quot;&gt;on&lt;/span&gt;&lt;span style=&quot;color: #8b888f;&quot;&gt;(&lt;/span&gt;&lt;span style=&quot;color: #f7f1ff;&quot;&gt;event&lt;/span&gt;&lt;span style=&quot;color: #8b888f;&quot;&gt;.&lt;/span&gt;&lt;span style=&quot;color: #948ae3;&quot;&gt;EVENT_NAME&lt;/span&gt;&lt;span style=&quot;color: #8b888f;&quot;&gt;,&lt;/span&gt;&lt;span style=&quot;color: #f7f1ff;&quot;&gt; subscriber&lt;/span&gt;&lt;span style=&quot;color: #8b888f;&quot;&gt;.&lt;/span&gt;&lt;span style=&quot;color: #f7f1ff;&quot;&gt;on&lt;/span&gt;&lt;span style=&quot;color: #8b888f;&quot;&gt;.&lt;/span&gt;&lt;span style=&quot;color: #7bd88f;&quot;&gt;bind&lt;/span&gt;&lt;span style=&quot;color: #8b888f;&quot;&gt;(&lt;/span&gt;&lt;span style=&quot;color: #f7f1ff;&quot;&gt;subscriber&lt;/span&gt;&lt;span style=&quot;color: #8b888f;&quot;&gt;));&lt;/span&gt;&lt;/div&gt;&lt;div&gt;&lt;span style=&quot;color: #f7f1ff;&quot;&gt;&lt;/span&gt;&lt;span style=&quot;color: #8b888f;&quot;&gt;&amp;nbsp; &amp;nbsp; &amp;nbsp; });&lt;/span&gt;&lt;/div&gt;&lt;div&gt;&lt;span style=&quot;color: #f7f1ff;&quot;&gt;&lt;/span&gt;&lt;span style=&quot;color: #8b888f;&quot;&gt;&amp;nbsp; &amp;nbsp; });&lt;/span&gt;&lt;/div&gt;&lt;div&gt;&lt;span style=&quot;color: #f7f1ff;&quot;&gt;&lt;/span&gt;&lt;span style=&quot;color: #8b888f;&quot;&gt;&amp;nbsp; }&lt;/span&gt;&lt;/div&gt;&lt;div&gt;&lt;span style=&quot;color: #8b888f;&quot;&gt;}&lt;/span&gt;&lt;/div&gt;&lt;/div&gt;" style="text;whiteSpace=wrap;html=1;fontSize=24;" vertex="1" parent="121">
                    <mxGeometry x="12" y="56" width="582" height="348" as="geometry"/>
                </mxCell>
                <mxCell id="117" value="&lt;b&gt;Note&lt;/b&gt;: Concrete example of implementation (using the &lt;i&gt;events&lt;/i&gt; package) of an InMemoryEventBus." style="text;html=1;strokeColor=none;fillColor=none;align=left;verticalAlign=middle;whiteSpace=wrap;rounded=0;shadow=1;fillStyle=auto;fontSize=13;spacingLeft=16;" vertex="1" parent="121">
                    <mxGeometry width="650" height="96" as="geometry"/>
                </mxCell>
                <mxCell id="120" value="" style="group" vertex="1" connectable="0" parent="1">
                    <mxGeometry x="86" y="-318" width="1797" height="425.74" as="geometry"/>
                </mxCell>
                <mxCell id="14" value="" style="group;" vertex="1" connectable="0" parent="120">
                    <mxGeometry width="633" height="260" as="geometry"/>
                </mxCell>
                <mxCell id="11" value="" style="rounded=0;whiteSpace=wrap;html=1;fontSize=24;" vertex="1" parent="14">
                    <mxGeometry width="633" height="260" as="geometry"/>
                </mxCell>
                <mxCell id="12" value="&lt;h1&gt;EVENT BUS (in a DDD context)&lt;/h1&gt;&lt;p&gt;Diagram illustrating an event bus to communicate a use case from one module (or bounded context, or other app) to another module (or another bounded context, or other app).&lt;/p&gt;" style="text;html=1;strokeColor=none;fillColor=none;spacing=5;spacingTop=-20;whiteSpace=wrap;overflow=hidden;rounded=0;fontSize=19;" vertex="1" parent="14">
                    <mxGeometry x="42.45" y="20.525352112676057" width="540.55" height="200.10845070422536" as="geometry"/>
                </mxCell>
                <mxCell id="38" value="&lt;h1&gt;Notes&lt;/h1&gt;&lt;div&gt;- The signatures and syntax is from &lt;i&gt;Typescript&lt;/i&gt; but can be applied to any language.&lt;br&gt;- The example is based on this &lt;a href=&quot;https://github.com/CodelyTV/typescript-ddd-example&quot;&gt;repo&lt;/a&gt;&amp;nbsp;and only uses a &lt;i&gt;in memory event bus&lt;/i&gt;.&lt;br&gt;&lt;/div&gt;&lt;div&gt;-&amp;nbsp;This event bus relies on a on &lt;a href=&quot;https://github.com/zazoomauro/node-dependency-injection&quot;&gt;a very specific dependency injection container&lt;/a&gt;&amp;nbsp;and &lt;a href=&quot;https://github.com/browserify/events&quot;&gt;a package called events&lt;/a&gt; (implements the Node.js events module for environments that do not have it, like browsers).&lt;/div&gt;&lt;div&gt;The connection points to the DI container will be shown in the diagram with&amp;nbsp;&lt;/div&gt;📦&lt;span style=&quot;background-color: initial;&quot;&gt;.&amp;nbsp;Use the one you like best.&amp;nbsp;You could also do without it.&lt;/span&gt;" style="text;html=1;strokeColor=none;fillColor=none;spacing=5;spacingTop=-20;whiteSpace=wrap;overflow=hidden;rounded=0;shadow=1;fontSize=19;" vertex="1" parent="120">
                    <mxGeometry x="678" width="722" height="244" as="geometry"/>
                </mxCell>
                <mxCell id="109" value="" style="group" vertex="1" connectable="0" parent="120">
                    <mxGeometry x="1450" y="4" width="301" height="397.74" as="geometry"/>
                </mxCell>
                <mxCell id="94" value="" style="group" vertex="1" connectable="0" parent="109">
                    <mxGeometry width="301" height="268.0041860465116" as="geometry"/>
                </mxCell>
                <mxCell id="81" value="&lt;h1&gt;&lt;font style=&quot;font-size: 38px;&quot;&gt;Legend&lt;/font&gt;&lt;/h1&gt;&lt;p style=&quot;font-size: 19px;&quot;&gt;This example uses DDD. The layers are represented with colors:&lt;br&gt;&lt;br&gt;&lt;/p&gt;" style="text;html=1;strokeColor=none;fillColor=none;spacing=5;spacingTop=-20;whiteSpace=wrap;overflow=hidden;rounded=0;" vertex="1" parent="94">
                    <mxGeometry width="301" height="126.2093023255814" as="geometry"/>
                </mxCell>
                <mxCell id="82" value="" style="group" vertex="1" connectable="0" parent="94">
                    <mxGeometry x="20" y="134" width="231" height="46.74418604651163" as="geometry"/>
                </mxCell>
                <mxCell id="83" value="" style="rounded=0;whiteSpace=wrap;html=1;fillColor=#1BA1E2;strokeColor=none;" vertex="1" parent="82">
                    <mxGeometry x="9" y="7.79" width="29" height="31.16" as="geometry"/>
                </mxCell>
                <mxCell id="84" value="&lt;font style=&quot;font-size: 19px;&quot;&gt;Infrastructure Layer&lt;/font&gt;" style="text;html=1;strokeColor=none;fillColor=none;align=left;verticalAlign=middle;whiteSpace=wrap;rounded=0;" vertex="1" parent="82">
                    <mxGeometry x="52" width="176" height="46.74" as="geometry"/>
                </mxCell>
                <mxCell id="96" value="" style="group" vertex="1" connectable="0" parent="94">
                    <mxGeometry x="20" y="177" width="231" height="46.74418604651163" as="geometry"/>
                </mxCell>
                <mxCell id="97" value="" style="rounded=0;whiteSpace=wrap;html=1;fillColor=#FFB366;strokeColor=none;" vertex="1" parent="96">
                    <mxGeometry x="9" y="7.79" width="29" height="31.16" as="geometry"/>
                </mxCell>
                <mxCell id="98" value="&lt;font style=&quot;font-size: 19px;&quot;&gt;Application Layer&lt;/font&gt;" style="text;html=1;strokeColor=none;fillColor=none;align=left;verticalAlign=middle;whiteSpace=wrap;rounded=0;" vertex="1" parent="96">
                    <mxGeometry x="52" width="176" height="46.74" as="geometry"/>
                </mxCell>
                <mxCell id="99" value="" style="group" vertex="1" connectable="0" parent="94">
                    <mxGeometry x="20" y="221.26" width="231" height="46.74418604651163" as="geometry"/>
                </mxCell>
                <mxCell id="100" value="" style="rounded=0;whiteSpace=wrap;html=1;fillColor=#76608A;strokeColor=none;" vertex="1" parent="99">
                    <mxGeometry x="9" y="7.79" width="29" height="31.16" as="geometry"/>
                </mxCell>
                <mxCell id="101" value="&lt;font style=&quot;font-size: 19px;&quot;&gt;Domain Layer&lt;/font&gt;" style="text;html=1;strokeColor=none;fillColor=none;align=left;verticalAlign=middle;whiteSpace=wrap;rounded=0;" vertex="1" parent="99">
                    <mxGeometry x="52" width="176" height="46.74" as="geometry"/>
                </mxCell>
                <mxCell id="102" value="" style="group" vertex="1" connectable="0" parent="109">
                    <mxGeometry x="21" y="264" width="231" height="46.74418604651163" as="geometry"/>
                </mxCell>
                <mxCell id="103" value="" style="rounded=0;whiteSpace=wrap;html=1;strokeColor=#76608A;fillColor=none;strokeWidth=3;" vertex="1" parent="102">
                    <mxGeometry x="9" y="7.79" width="29" height="31.16" as="geometry"/>
                </mxCell>
                <mxCell id="104" value="&lt;font style=&quot;font-size: 19px;&quot;&gt;Shared Domain&lt;/font&gt;" style="text;html=1;strokeColor=none;fillColor=none;align=left;verticalAlign=middle;whiteSpace=wrap;rounded=0;" vertex="1" parent="102">
                    <mxGeometry x="52" width="176" height="46.74" as="geometry"/>
                </mxCell>
                <mxCell id="107" value="&lt;font style=&quot;font-size: 19px;&quot;&gt;DI Container&lt;/font&gt;" style="text;html=1;strokeColor=none;fillColor=none;align=left;verticalAlign=middle;whiteSpace=wrap;rounded=0;" vertex="1" parent="109">
                    <mxGeometry x="76" y="305" width="176" height="46.74" as="geometry"/>
                </mxCell>
                <mxCell id="108" value="&lt;span style=&quot;text-align: left;&quot;&gt;&lt;font style=&quot;font-size: 24px;&quot;&gt;📦&lt;/font&gt;&lt;/span&gt;" style="text;html=1;strokeColor=none;fillColor=none;align=center;verticalAlign=middle;whiteSpace=wrap;rounded=0;strokeWidth=2;fontSize=19;" vertex="1" parent="109">
                    <mxGeometry x="31" y="316" width="32" height="30" as="geometry"/>
                </mxCell>
            </root>
        </mxGraphModel>
    </diagram>
</mxfile>
